<svg width="150" height="70" viewBox="0 0 150 70" fill="none" xmlns="http://www.w3.org/2000/svg">
<path d="M147.986 32.8471C141.747 31.0787 136.019 32.0295 130.143 32.1039C129.527 32.0118 128.91 31.9197 128.344 32.0995C124.637 33.1828 120.038 33.0167 115.954 33.5651C113.501 33.8327 110.409 33.0642 108.491 34.2531C104.47 34.5634 100.274 34.6691 96.4238 35.2244C90.2704 36.1257 83.3952 35.6338 77.2478 36.4746C69.4765 37.5153 61.0407 37.3741 52.9347 37.4553C42.2829 37.568 31.5617 37.5909 20.9078 37.7239C15.0135 37.2027 9.55382 37.8164 4.07155 38.2638C-0.883055 39.3045 -0.974143 39.8259 3.53382 42.0887C6.40234 43.1381 9.69552 43.4594 12.6161 43.5941C19.0006 43.9062 25.4805 46.0094 31.7315 44.9148C33.091 45.0114 34.4973 45.0315 35.8489 45.209C39.25 45.6246 41.8375 44.3908 44.9821 44.6334C53.2902 45.2713 60.8761 44.1272 68.9047 44.037C77.9122 43.9378 86.4992 42.5621 95.3392 41.7887C97.5105 41.5909 100.216 41.9256 101.949 41.4109C107.473 39.7612 114.635 40.5115 120.149 38.963C124.979 37.6009 131.612 38.167 135.595 35.8881C135.866 35.9196 136.138 35.9308 136.452 35.9263C139.837 36.5037 143.136 36.3755 146.255 36.0832C149.22 35.773 151.037 34.8178 147.986 32.8471ZM136.183 33.1329C136.109 33.0835 136.036 33.034 135.924 32.9801L136.311 33.025C136.268 33.061 136.225 33.097 136.183 33.1329Z" fill="#98262B"/>
<path d="M149.4 33.8513C148.679 31.6424 146.417 31.5052 144.657 30.7027C144.534 30.5451 144.412 30.3875 144.135 30.4371C142.38 30.692 141.142 29.899 139.61 29.7061C138.728 29.5449 138.304 28.5295 137.005 29.1229C135.639 28.7642 134.349 28.2298 132.881 28.076C130.526 27.8404 128.826 26.4762 126.51 26.197C123.597 25.8278 121.224 24.4935 118.809 23.3707C115.631 21.8997 112.489 20.3526 109.299 18.8962C107.903 17.6536 105.929 17.308 104.052 16.8369C101.96 16.8785 101.609 17.2481 101.518 19.5677C101.703 20.7569 102.464 21.4732 103.232 21.9982C104.9 23.1587 105.484 25.6487 107.987 25.7566C108.324 26.0258 108.722 26.2458 109.006 26.5733C109.74 27.3747 111.261 26.8459 112.028 27.4827C114.055 29.1632 116.979 29.4294 119.377 30.5343C122.066 31.7754 125.426 32.0176 128.485 32.739C129.242 32.9105 129.823 33.5509 130.648 33.4257C133.285 33.0199 134.908 34.6157 137.479 34.2826C139.734 33.9869 141.318 35.3702 143.896 34.2774C143.955 34.34 144.028 34.388 144.122 34.4304C144.75 35.3483 145.792 35.7353 146.884 35.9757C147.942 36.1803 149.065 35.7438 149.4 33.8513ZM145.779 32.3395C145.789 32.2925 145.798 32.2455 145.799 32.1895L145.884 32.2789C145.849 32.2991 145.814 32.3193 145.779 32.3395Z" fill="#98262B"/>
<path d="M148.844 33.0232C148.827 35.1789 146.72 35.7362 145.291 36.8054C145.222 36.9728 145.153 37.1402 144.875 37.1478C143.131 37.25 142.194 38.2109 140.797 38.6797C140.008 38.9954 139.912 40.0041 138.499 39.7099C137.31 40.2984 136.246 41.033 134.897 41.4539C132.731 42.1188 131.529 43.6897 129.413 44.3871C126.757 45.2808 124.906 46.9529 122.951 48.4398C120.377 50.3904 117.86 52.4037 115.27 54.3435C114.32 55.7452 112.549 56.438 110.908 57.2268C108.908 57.5883 108.463 57.3176 107.674 55.2159C107.49 54.0943 107.996 53.2946 108.567 52.6683C109.801 51.2894 109.602 48.9033 111.948 48.3266C112.186 48.0164 112.498 47.7395 112.668 47.3861C113.123 46.5138 114.729 46.7063 115.264 45.9781C116.682 44.0558 119.379 43.2542 121.323 41.7869C123.503 40.1396 126.622 39.2767 129.31 38.0333C129.977 37.7323 130.335 37.0362 131.157 36.9929C133.785 36.8602 134.844 35.0924 137.388 34.9057C139.62 34.7452 140.706 33.1791 143.486 33.6852C143.523 33.6166 143.578 33.5589 143.654 33.5022C143.974 32.5436 144.847 31.991 145.811 31.5629C146.754 31.174 147.954 31.3583 148.844 33.0232Z" fill="#98262B"/>
</svg>
