<svg width="17" height="19" viewBox="0 0 17 19" fill="none" xmlns="http://www.w3.org/2000/svg">
<path d="M8.2385 17.3011C8.79932 16.6523 8.70638 15.9608 8.82375 15.285C8.85967 15.2178 8.89558 15.1506 8.86612 15.0791C8.69547 14.6142 8.84033 14.0935 8.80462 13.6053C8.79777 13.3145 9.05022 12.989 8.81357 12.725C8.83266 12.2528 8.90406 11.7683 8.86138 11.3066C8.78988 10.5682 9.06391 9.79906 9.0066 9.06363C8.93934 8.13474 9.16643 7.17377 9.33341 6.24231C9.55142 5.01805 9.79224 3.78922 10.0055 2.56398C10.2639 1.90827 10.2444 1.26006 10.2647 0.615455C10.1328 0.00918855 10.0118 -0.020669 9.37395 0.411362C9.06031 0.700823 8.90883 1.06605 8.80995 1.39555C8.58962 2.1152 7.94422 2.77904 8.05912 3.5358C8.00509 3.68792 7.96803 3.84825 7.89509 3.99643C7.71885 4.37051 7.95075 4.71285 7.82125 5.06399C7.47983 5.99182 7.57576 6.90333 7.41267 7.82627C7.22923 8.86168 7.35682 9.89647 7.33641 10.9378C7.33325 11.1939 7.19209 11.4912 7.2738 11.709C7.53645 12.4031 7.1948 13.1955 7.4338 13.8848C7.64446 14.4888 7.35847 15.2274 7.80507 15.7685C7.79143 15.7983 7.78251 15.8291 7.77638 15.8652C7.56231 16.2314 7.51682 16.614 7.51418 16.9822C7.51934 17.3334 7.70314 17.577 8.2385 17.3011ZM8.4421 15.9384C8.45545 15.9319 8.46881 15.9253 8.48411 15.9145L8.46462 15.9571C8.45711 15.9509 8.4496 15.9447 8.4421 15.9384Z" fill="#98262B"/>
<path d="M8.69696 17.9824C9.23342 17.8612 9.26675 17.4813 9.46162 17.1857C9.4999 17.1651 9.53818 17.1445 9.52614 17.098C9.46423 16.8032 9.65681 16.5952 9.70365 16.3378C9.7428 16.1898 9.98941 16.1185 9.8453 15.9004C9.93241 15.671 10.0622 15.4543 10.0996 15.2077C10.1568 14.8121 10.4881 14.5266 10.5559 14.1376C10.6455 13.6482 10.9696 13.2495 11.2422 12.8439C11.5995 12.3102 11.9752 11.7825 12.3289 11.2466C12.6307 11.0121 12.7146 10.6805 12.829 10.3652C12.8189 10.0138 12.7291 9.95493 12.1658 9.9396C11.877 9.97062 11.7031 10.0985 11.5756 10.2275C11.2937 10.5078 10.689 10.6057 10.6628 11.0263C10.5974 11.0828 10.544 11.1496 10.4645 11.1973C10.2699 11.3206 10.3983 11.5762 10.2436 11.7049C9.83551 12.0454 9.77086 12.5366 9.50253 12.9394C9.20113 13.3911 9.1423 13.9554 8.96709 14.4693C8.92546 14.5964 8.76992 14.694 8.80032 14.8326C8.89889 15.2755 8.51133 15.5481 8.59222 15.98C8.66405 16.3588 8.3281 16.6247 8.5935 17.0578C8.5783 17.0678 8.56664 17.0799 8.55634 17.0958C8.33342 17.2014 8.23943 17.3764 8.18105 17.5598C8.13135 17.7374 8.23737 17.9261 8.69696 17.9824ZM9.06413 17.3742C9.07554 17.3757 9.08696 17.3773 9.10054 17.3774L9.07883 17.3917C9.07393 17.3859 9.06903 17.38 9.06413 17.3742Z" fill="#98262B"/>
<path d="M8.98004 18.2529C8.45651 18.25 8.32117 17.8961 8.06151 17.6559C8.02085 17.6444 7.9802 17.6328 7.97836 17.5861C7.95354 17.2932 7.72017 17.1358 7.60632 16.9011C7.52966 16.7686 7.28469 16.7525 7.35613 16.5151C7.21321 16.3154 7.03481 16.1367 6.9326 15.9102C6.77111 15.5463 6.38961 15.3444 6.22026 14.989C6.00322 14.5428 5.59713 14.2319 5.23603 13.9035C4.76231 13.4712 4.27337 13.0485 3.80227 12.6133C3.46187 12.4538 3.29363 12.1563 3.10204 11.8807C3.01425 11.5447 3.08 11.47 3.5904 11.3375C3.86279 11.3065 4.05701 11.3916 4.20912 11.4875C4.54398 11.6948 5.12346 11.6613 5.26351 12.0554C5.33886 12.0954 5.4061 12.1477 5.49193 12.1764C5.70376 12.2528 5.65701 12.5225 5.83386 12.6124C6.3007 12.8505 6.49537 13.3036 6.85173 13.6302C7.25179 13.9963 7.46135 14.5202 7.7633 14.9717C7.83641 15.0837 8.00545 15.1439 8.01597 15.282C8.04819 15.7234 8.47753 15.9013 8.52286 16.3285C8.56184 16.7035 8.94217 16.8858 8.81928 17.3528C8.83592 17.3591 8.84994 17.3682 8.86372 17.3811C9.09652 17.4348 9.23071 17.5814 9.33467 17.7434C9.42913 17.9018 9.38438 18.1032 8.98004 18.2529Z" fill="#98262B"/>
</svg>
