<svg width="156" height="20" viewBox="0 0 156 20" fill="none" xmlns="http://www.w3.org/2000/svg">
<path d="M106.144 0C100.525 0 97.0847 3.7888 97.0847 10C97.0847 16.2112 100.525 20 106.144 20C111.763 20 115.203 16.2112 115.203 10C115.203 3.7888 111.763 0 106.144 0ZM106.144 16.5056C103.053 16.5056 101.171 14.032 101.171 10C101.171 5.968 103.053 3.4944 106.144 3.4944C109.235 3.4944 111.117 5.968 111.117 10C111.117 14.032 109.235 16.5056 106.144 16.5056Z" fill="#98262B"/>
<path d="M10.5088 7.87609C9.728 10.4553 9.0048 13.0921 8.4384 15.6969H8.384C7.8208 13.0889 7.12 10.4553 6.3136 7.87609L4.032 0.429688H0L5.9392 19.5689H10.8864L16.8256 0.429688H12.7936L10.5088 7.87609Z" fill="#98262B"/>
<path d="M28.016 0C22.4 0 18.9568 3.7888 18.9568 10C18.9568 16.2112 22.4 20 28.016 20C33.6352 20 37.0752 16.2112 37.0752 10C37.0752 3.7888 33.6352 0 28.016 0ZM28.016 16.5056C24.9248 16.5056 23.0432 14.032 23.0432 10C23.0432 5.968 24.9248 3.4944 28.016 3.4944C31.1072 3.4944 32.9888 5.968 32.9888 10C32.9888 14.032 31.1072 16.5056 28.016 16.5056Z" fill="#98262B"/>
<path d="M49.1775 7.9552C46.1663 7.2032 45.0111 6.72 45.0111 5.2416C45.0111 4.0064 46.1951 3.1456 47.9423 3.1456C50.1183 3.1456 51.2767 4.3008 51.2767 6.2912H55.2831C55.2767 2.176 52.8063 0 48.0191 0C43.8271 0 40.9503 2.3104 40.9503 5.6704C40.9503 9.8624 44.2303 10.7232 47.8303 11.6384C50.5439 12.336 51.7823 12.6592 51.7823 14.352C51.7823 15.856 50.4927 16.7968 48.4767 16.7968C46.0319 16.7968 44.7679 15.5872 44.7679 13.2768H40.6815C40.6815 17.632 43.6639 19.9968 48.4223 19.9968C52.8831 19.9968 55.8943 17.5776 55.8943 13.9488C55.8975 9.7856 52.7775 8.8448 49.1775 7.9552Z" fill="#98262B"/>
<path d="M58.9344 3.81849H64.9536V19.5689H68.9056V3.81849H74.928V0.429688H58.9344V3.81849Z" fill="#98262B"/>
<path d="M93.2896 5.83324C93.2896 2.41884 91.1136 0.431641 86.3008 0.431641H79.2576V19.5708H83.2096V12.2556H85.3856C85.6704 12.2556 85.9392 12.246 86.2048 12.23V12.2556C88.3712 12.2556 89.5232 17.6188 89.536 19.5868H93.5424C93.5328 16.934 92.4896 13.318 90.4576 11.1004C92.7968 9.72124 93.2896 7.39164 93.2896 5.83324ZM86.0032 9.11324H83.2064V3.62844H85.7856C88.0448 3.62844 89.3056 4.43484 89.3056 6.29084C89.3088 8.03804 88.3968 9.11324 86.0032 9.11324Z" fill="#98262B"/>
<path d="M135.418 12.1718L135.456 11.9414H133.066L133.027 12.1718C133.802 12.1718 133.942 12.4502 133.6 13.151L131.248 17.9734L130.397 11.9446H130.141L127.178 17.9734L126.49 13.151C126.387 12.4502 126.63 12.1718 127.482 12.1718L127.52 11.9414H124.646L124.608 12.1718C125.382 12.1718 125.472 12.3766 125.6 13.2918L126.502 19.6886H126.794L129.731 13.7494L130.57 19.6886H130.861L134.016 13.2918C134.451 12.4118 134.605 12.1718 135.418 12.1718Z" fill="#98262B"/>
<path d="M143.67 14.0794H142.832C142.55 14.0026 142.31 13.9258 141.93 13.9258C140.682 13.9258 139.424 15.0842 139.133 16.8122C138.842 18.505 139.488 19.7242 140.646 19.7242C141.104 19.7242 141.651 19.433 142.006 18.9882C142.045 19.3946 142.237 19.6634 142.656 19.6634C142.938 19.6634 143.203 19.5738 143.507 19.2698L143.494 19.017C143.392 19.1194 143.19 19.209 143.024 19.209C142.819 19.209 142.806 18.9146 142.87 18.5722L143.67 14.0794ZM142.17 17.8586C142.029 18.6586 141.43 19.2314 140.886 19.2314C140.122 19.2314 139.83 18.1882 140.086 16.8154C140.33 15.5066 140.989 14.3482 141.904 14.3482C142.336 14.3482 142.528 14.4634 142.742 14.6522L142.17 17.8586Z" fill="#98262B"/>
<path d="M146.835 11.6387L145.078 11.9427L145.04 12.1731C145.779 12.1731 145.866 12.4515 145.6 13.9395L144.762 18.6595C144.659 19.2451 144.864 19.6899 145.386 19.6899C145.667 19.6899 145.946 19.6003 146.237 19.2963L146.224 19.0403C146.109 19.1427 145.933 19.2323 145.754 19.2323C145.562 19.2323 145.536 18.9411 145.6 18.5955L146.835 11.6387Z" fill="#98262B"/>
<path d="M154.797 19.2323C154.656 19.2323 154.605 19.1171 154.605 18.9027C154.605 18.5091 155.216 16.3203 155.216 15.3283C155.216 14.4643 154.835 13.9299 154.058 13.9299C153.395 13.9299 152.659 14.4387 152.24 15.1875L152.864 11.6387L151.107 11.9427L151.069 12.1731C151.805 12.1731 151.894 12.4387 151.629 13.9395L150.637 19.5747H151.462L151.933 16.8515C152.211 15.2611 153.254 14.5251 153.715 14.5251C154.237 14.5251 154.39 14.8803 154.39 15.4403C154.39 16.2787 153.779 18.4803 153.779 18.9251C153.779 19.3827 153.994 19.6899 154.429 19.6899C154.698 19.6899 154.989 19.6003 155.28 19.2963L155.267 19.0403C155.155 19.1427 154.976 19.2323 154.797 19.2323Z" fill="#98262B"/>
<path d="M137.046 13.9258C135.85 13.9258 134.275 15.465 134.275 17.5386C134.275 18.7962 134.899 19.7274 136.042 19.7274C136.742 19.7274 137.504 19.3338 137.974 18.7482L137.808 18.4826C137.44 18.9018 136.88 19.2314 136.41 19.2314C135.469 19.2314 135.2 18.3802 135.213 17.4778C137.043 17.0842 138.061 15.977 138.189 15.1994C138.307 14.4986 137.824 13.9258 137.046 13.9258ZM137.443 15.2122C137.341 15.8106 136.554 16.7898 135.254 17.0938C135.421 15.721 136.221 14.3706 136.922 14.3706C137.392 14.3738 137.517 14.7674 137.443 15.2122Z" fill="#98262B"/>
<path d="M149.549 12.5664H148.723L148.454 14.08H147.514L147.437 14.5248H148.378L147.744 18.048C147.539 19.168 147.846 19.7024 148.518 19.7024C148.835 19.7024 149.283 19.5616 149.728 18.9888L149.715 18.5952C149.27 19.1168 149.078 19.1552 148.89 19.1552C148.534 19.1552 148.445 18.7488 148.573 18.048L149.21 14.5248H150.368L150.445 14.08H149.286L149.549 12.5664Z" fill="#98262B"/>
<path d="M139.005 3.31185C138.89 3.94865 138.013 5.04305 137.821 6.10865C137.642 7.13905 137.923 8.22065 139.258 8.22065C140.925 8.22065 141.866 6.31345 141.866 4.29105C141.866 2.77745 141.562 2.40945 141.242 2.40945C141.075 2.40945 140.848 2.49905 140.822 2.73905C140.771 3.15825 141.344 3.23505 141.344 4.54385C141.344 6.30065 140.544 7.72465 139.488 7.72465C138.851 7.72465 138.522 7.17745 138.714 6.12145C139.018 4.39025 139.565 3.48785 139.77 2.40625H139.478C139.008 2.71025 138.982 2.47025 138.397 2.47025C137.99 2.47025 137.648 2.67505 137.494 3.25745L137.635 3.34705C137.875 2.87665 138.397 2.97905 139.005 3.31185Z" fill="#98262B"/>
<path d="M148.928 6.52848C148.723 7.64848 149.03 8.18288 149.706 8.18288C150.022 8.18288 150.467 8.04208 150.915 7.46928L150.902 7.07568C150.458 7.59728 150.266 7.63568 150.077 7.63568C149.722 7.63568 149.632 7.22928 149.76 6.52848L150.397 3.00528H151.555L151.626 2.56048H150.467L150.736 1.04688H149.91L149.638 2.56048H148.698L148.621 3.00528H149.562L148.928 6.52848Z" fill="#98262B"/>
<path d="M136.458 1.46549C136.749 1.46549 137.018 1.20949 137.056 0.918294C137.094 0.627094 136.89 0.371094 136.586 0.371094C136.294 0.371094 136.026 0.623894 135.987 0.918294C135.949 1.21269 136.154 1.46549 136.458 1.46549Z" fill="#98262B"/>
<path d="M135.517 8.16957C135.782 8.16957 136.077 8.07997 136.368 7.77597L136.355 7.52317C136.24 7.62557 136.064 7.71517 135.885 7.71517C135.744 7.71517 135.693 7.59997 135.693 7.38557C135.693 7.03037 136.518 3.60957 136.518 3.21277C136.518 2.75517 136.301 2.45117 135.869 2.45117C135.587 2.45117 135.296 2.55357 135.018 2.84477L135.03 3.09757C135.158 2.98237 135.347 2.90557 135.501 2.90557C135.642 2.90557 135.693 3.02077 135.693 3.23517C135.693 3.59037 134.867 7.01437 134.867 7.40797C134.867 7.86557 135.085 8.16957 135.517 8.16957Z" fill="#98262B"/>
<path d="M146.906 7.68625C146.701 7.68625 146.688 7.39505 146.752 7.04945L147.555 2.55985H146.717C146.435 2.48305 146.195 2.40625 145.814 2.40625C144.566 2.40625 143.309 3.56465 143.018 5.29265C142.726 6.98545 143.373 8.20465 144.531 8.20465C144.989 8.20465 145.536 7.91345 145.891 7.46865C145.93 7.87505 146.122 8.14385 146.541 8.14385C146.822 8.14385 147.088 8.05425 147.392 7.75025L147.379 7.49425C147.274 7.59665 147.072 7.68625 146.906 7.68625ZM146.054 6.33905C145.914 7.13905 145.315 7.71185 144.768 7.71185C144.003 7.71185 143.712 6.66865 143.968 5.29585C144.211 3.98705 144.87 2.82865 145.786 2.82865C146.218 2.82865 146.41 2.94385 146.624 3.13265L146.054 6.33905Z" fill="#98262B"/>
<path d="M155.795 3.68056C155.91 2.97976 155.427 2.41016 154.65 2.41016C153.453 2.41016 151.878 3.94936 151.878 6.02296C151.878 7.28056 152.502 8.21176 153.645 8.21176C154.346 8.21176 155.107 7.81816 155.578 7.23256L155.411 6.96696C155.043 7.38616 154.483 7.71576 154.013 7.71576C153.072 7.71576 152.803 6.86456 152.816 5.95896C154.65 5.56216 155.667 4.45496 155.795 3.68056ZM155.043 3.69336C154.941 4.29176 154.154 5.27096 152.854 5.57496C153.021 4.20216 153.821 2.85176 154.522 2.85176C154.992 2.85176 155.12 3.24856 155.043 3.69336Z" fill="#98262B"/>
<path d="M130.637 8.05425H131.462L131.843 5.94225C132.211 3.86865 132.886 3.00465 133.293 3.00465C133.459 3.00465 133.485 3.10705 133.485 3.34705C133.485 3.59025 133.626 3.76625 133.891 3.76625C134.208 3.76625 134.4 3.44945 134.426 3.21905C134.464 2.87665 134.31 2.40625 133.674 2.40625C133.114 2.40625 132.528 2.96625 132.237 3.71505C132.416 2.83825 132.173 2.46705 131.651 2.46705C131.382 2.46705 131.078 2.56945 130.8 2.86065L130.813 3.11665C130.928 3.00145 131.104 2.92465 131.283 2.92465C131.475 2.92465 131.501 3.20305 131.437 3.56145L130.637 8.05425Z" fill="#98262B"/>
<path d="M126.934 7.82668C126.096 7.82668 126.006 7.66028 126.186 6.64268L126.515 4.72268H127.507C128.918 4.72268 130.013 3.75628 130.218 2.57228C130.422 1.38827 129.683 0.421875 128.272 0.421875H125.411L125.373 0.652275C126.224 0.652275 126.301 0.818675 126.122 1.83627L125.283 6.64588C125.104 7.66348 124.954 7.82988 124.099 7.82988L124.061 8.05708H126.896L126.934 7.82668ZM127.2 0.853875H128.192C129.069 0.853875 129.453 1.52908 129.261 2.57228C129.069 3.62828 128.397 4.29068 127.517 4.29068H126.589L127.2 0.853875Z" fill="#98262B"/>
</svg>
