<svg width="68" height="63" viewBox="0 0 68 63" fill="none" xmlns="http://www.w3.org/2000/svg">
<g clip-path="url(#clip0)">
<path d="M49.6595 27.4091C48.1391 24.3297 46.6719 21.2374 45.2046 18.145C44.0972 15.8641 42.5734 13.7784 41.5722 11.4716C40.6043 9.26127 42.0436 7.35422 44.5805 7.36475C45.8735 7.37449 46.9194 7.90414 47.3382 9.08784C49.4327 15.0063 53.3362 20.1925 56.4514 25.6643C56.6758 26.3832 56.9042 27.0802 57.1571 27.7816C59.3564 29.0866 59.2964 31.0869 59.318 33.0569C59.3638 33.2234 59.3851 33.3855 59.4309 33.552C60.822 34.4158 60.112 35.6649 60.2931 36.76L60.2725 36.7337C61.5175 38.6781 61.9077 40.7154 61.2386 42.8532C60.747 44.4359 61.4102 46.2291 60.3289 47.7043L60.3328 47.6824C60.6601 48.533 60.7743 49.2996 59.6798 49.7328C59.4725 50.034 59.2859 50.3615 59.0786 50.6627C58.9901 52.6804 55.5364 55.192 53.2652 55.1169C53.155 55.1646 53.0693 55.2168 52.9591 55.2645C50.6632 56.021 48.2552 55.582 46.1475 54.6102C43.8266 53.5543 41.448 52.3975 40.593 49.8462C39.6961 47.1064 39.1347 44.3375 40.2593 41.6499C40.7084 40.5792 41.7691 39.9138 43.687 39.6986C44.7463 38.7618 46.8668 38.9676 48.6227 38.2482C49.9663 37.7021 51.3489 37.6378 52.6147 37.9364C51.7504 35.1574 52.1373 32.1997 50.7537 29.4842C50.4024 28.7648 50.2923 27.9764 49.6595 27.4091Z" fill="#F6A300"/>
</g>
<g clip-path="url(#clip1)">
<path d="M16.2298 26.7824C14.7094 23.703 13.2422 20.6107 11.7749 17.5183C10.6675 15.2374 9.14371 13.1517 8.14255 10.8449C7.17459 8.63456 8.61394 6.72751 11.1508 6.73804C12.4438 6.74778 13.4897 7.27744 13.9086 8.46113C16.003 14.3796 19.9065 19.5658 23.0218 25.0376C23.2461 25.7565 23.4745 26.4535 23.7274 27.1549C25.9267 28.4598 25.8667 30.4602 25.8884 32.4302C25.9342 32.5967 25.9554 32.7588 26.0012 32.9253C27.3924 33.7891 26.6823 35.0382 26.8634 36.1333L26.8428 36.107C28.0878 38.0514 28.478 40.0886 27.809 42.2265C27.3173 43.8092 27.9805 45.6024 26.8992 47.0775L26.9032 47.0557C27.2304 47.9063 27.3446 48.6728 26.2501 49.1061C26.0428 49.4073 25.8562 49.7348 25.649 50.036C25.5604 52.0537 22.1067 54.5653 19.8355 54.4902C19.7253 54.5379 19.6396 54.5901 19.5294 54.6378C17.2335 55.3943 14.8255 54.9553 12.7178 53.9835C10.3969 52.9276 8.01829 51.7708 7.16327 49.2195C6.26644 46.4797 5.70498 43.7107 6.82965 41.0232C7.27872 39.9525 8.33937 39.2871 10.2573 39.0718C11.3167 38.135 13.4371 38.3408 15.1931 37.6214C16.5366 37.0754 17.9193 37.0111 19.185 37.3097C18.3207 34.5307 18.7076 31.573 17.324 28.8575C16.9728 28.1381 16.8626 27.3497 16.2298 26.7824Z" fill="#F6A300"/>
</g>
<defs>
<clipPath id="clip0">
<rect width="26" height="46.6207" fill="white" transform="matrix(-0.983784 -0.179356 -0.179356 0.983784 67.3698 11.4514)"/>
</clipPath>
<clipPath id="clip1">
<rect width="26" height="46.6207" fill="white" transform="matrix(-0.983784 -0.179356 -0.179356 0.983784 33.9401 10.8247)"/>
</clipPath>
</defs>
</svg>
