<svg width="55" height="163" viewBox="0 0 55 163" fill="none" xmlns="http://www.w3.org/2000/svg">
<path d="M2.57588 14.4646C3.7276 14.5369 4.54218 13.7923 5.46267 13.3124C5.56871 13.2935 5.67476 13.2746 5.74709 13.174C6.23013 12.5447 6.9719 12.2397 7.56488 11.7496C7.92675 11.4748 8.48735 11.4767 8.67801 10.9531C9.28354 10.5429 9.93602 10.1836 10.4914 9.70952C11.3778 8.94746 12.5095 8.56827 13.4007 7.82579C14.5293 6.89412 15.8743 6.28321 17.1463 5.62785C18.8172 4.76473 20.5075 3.92456 22.1768 3.05492C23.1564 2.76115 23.9604 2.14362 24.7837 1.57672C25.4677 0.863924 25.4329 0.692593 24.5079 0.329942C23.9561 0.222211 23.4059 0.376866 22.9322 0.561332C21.8949 0.959039 20.6736 0.799885 19.79 1.63041C19.5663 1.70561 19.3424 1.80852 19.1123 1.85761C18.5362 1.99092 18.2441 2.58067 17.7248 2.74856C16.3531 3.19307 15.2635 4.14291 14.0046 4.7951C12.592 5.52619 11.3662 6.62674 10.0436 7.5572C9.7195 7.78823 9.26091 7.89294 9.0358 8.18976C8.31937 9.13867 7.11794 9.45876 6.39355 10.375C5.7595 11.1794 4.65901 11.5164 4.2452 12.5438C4.1995 12.5549 4.15539 12.5726 4.10634 12.5983C3.51752 12.6794 3.00885 12.9761 2.54394 13.3106C2.10515 13.6386 1.90847 14.0807 2.57588 14.4646ZM4.41226 13.4574C4.42849 13.4673 4.44473 13.4772 4.46749 13.4855L4.40221 13.5014C4.40556 13.4867 4.40891 13.4721 4.41226 13.4574Z" fill="#F6A300"/>
<path d="M27.3881 76.1384C28.3645 76.7534 29.4362 76.4899 30.4741 76.5094C30.5762 76.5436 30.6784 76.5778 30.79 76.5242C31.5155 76.2031 32.3127 76.2905 33.068 76.1443C33.5173 76.0764 34.0085 76.3465 34.4266 75.9782C35.1546 75.9081 35.8995 75.9051 36.6141 75.755C37.7572 75.5105 38.9323 75.7196 40.0702 75.4946C41.5072 75.2172 42.9805 75.3251 44.4109 75.3589C46.2911 75.4014 48.1773 75.4734 50.0592 75.5094C51.0599 75.7207 52.0615 75.5636 53.0556 75.4602C53.9975 75.1621 54.049 74.995 53.4106 74.2337C52.9778 73.8748 52.4208 73.7471 51.9166 73.6822C50.8155 73.5345 49.8196 72.8099 48.6462 73.1158C48.4138 73.0747 48.1679 73.0578 47.9424 72.9907C47.3729 72.8318 46.834 73.2097 46.2977 73.1084C44.8807 72.8417 43.4692 73.1536 42.0518 73.1233C40.4616 73.0886 38.8584 73.4676 37.2518 73.651C36.8566 73.6986 36.4039 73.5709 36.0641 73.7237C34.9807 74.2136 33.7727 73.9192 32.698 74.3766C31.7562 74.7791 30.6287 74.5479 29.7734 75.2516C29.728 75.2395 29.6808 75.2339 29.6254 75.233C29.0697 75.0222 28.481 75.0391 27.9127 75.11C27.3704 75.1879 26.986 75.4817 27.3881 76.1384ZM29.4825 76.1337C29.492 76.1502 29.5015 76.1666 29.5176 76.1848L29.4526 76.1675C29.4626 76.1562 29.4725 76.145 29.4825 76.1337Z" fill="#F6A300"/>
<path d="M15.0754 145.331C15.6475 146.334 16.7171 146.605 17.6237 147.111C17.6978 147.189 17.7718 147.268 17.8956 147.273C18.6868 147.331 19.3491 147.783 20.0843 148.01C20.5127 148.161 20.819 148.631 21.3613 148.502C22.0366 148.783 22.6953 149.131 23.3965 149.335C24.5201 149.657 25.4586 150.395 26.5685 150.731C27.9669 151.163 29.2161 151.951 30.4624 152.654C32.1014 153.577 33.7318 154.528 35.3754 155.445C36.1589 156.103 37.1165 156.435 38.0424 156.812C39.0137 156.992 39.1378 156.869 38.9328 155.897C38.7198 155.376 38.2884 155.002 37.8741 154.707C36.972 154.059 36.4343 152.951 35.255 152.668C35.0692 152.523 34.8603 152.392 34.6929 152.227C34.2651 151.819 33.6118 151.898 33.1863 151.557C32.0615 150.654 30.6693 150.265 29.4328 149.572C28.0461 148.793 26.4531 148.373 24.9492 147.778C24.5781 147.635 24.2387 147.309 23.8671 147.284C22.6806 147.206 21.7533 146.378 20.5897 146.276C19.5693 146.188 18.6832 145.453 17.5974 145.672C17.563 145.639 17.524 145.612 17.4756 145.585C17.0844 145.138 16.5571 144.876 16.0223 144.671C15.5071 144.484 15.0297 144.563 15.0754 145.331ZM16.9256 146.313C16.9263 146.332 16.927 146.351 16.9325 146.375L16.8834 146.329C16.8975 146.323 16.9116 146.318 16.9256 146.313Z" fill="#F6A300"/>
</svg>
