<svg width="199" height="143" viewBox="0 0 199 143" fill="none" xmlns="http://www.w3.org/2000/svg">
<path d="M28.1088 41.5534C29.4165 40.44 29.5186 38.8007 30.0077 37.3352C30.1017 37.2053 30.1957 37.0754 30.1691 36.893C30.0355 35.7199 30.5141 34.6264 30.6421 33.4886C30.7454 32.8203 31.3474 32.2427 31.0102 31.4851C31.2342 30.4199 31.5611 29.3606 31.6655 28.2789C31.8264 26.5466 32.6458 24.9706 32.8321 23.2543C33.0769 21.09 33.8851 19.0454 34.569 17.0287C35.4652 14.3771 36.4059 11.73 37.2936 9.0731C38.0386 7.74573 38.2607 6.25337 38.5558 4.79532C38.551 3.32506 38.3366 3.17762 36.9714 3.74586C36.2694 4.20107 35.8404 4.93547 35.524 5.62278C34.8248 7.12106 33.3529 8.21343 33.2658 10.016C33.1041 10.3279 32.9708 10.6695 32.7753 10.96C32.2964 11.6984 32.5935 12.6317 32.2112 13.3484C31.2025 15.2425 31.0182 17.3859 30.3449 19.3857C29.5887 21.6288 29.4144 24.0744 28.9607 26.4379C28.8527 27.0204 28.47 27.6066 28.536 28.1571C28.7502 29.9136 27.7951 31.4985 27.967 33.2283C28.12 34.745 27.2904 36.2436 27.9097 37.7712C27.8723 37.8304 27.8433 37.8949 27.8175 37.9732C27.271 38.6688 27.0333 39.5124 26.8814 40.3511C26.7509 41.156 26.9975 41.8325 28.1088 41.5534ZM29.0332 38.5765C29.0608 38.5703 29.0884 38.5641 29.1214 38.5494L29.0679 38.634C29.0563 38.6148 29.0448 38.5957 29.0332 38.5765Z" fill="#F6A300"/>
<path d="M94.4542 66.0339C96.1354 65.6828 97.0101 64.2926 98.1413 63.2404C98.286 63.1713 98.4307 63.1023 98.4948 62.9294C98.9393 61.8356 99.8832 61.1049 100.54 60.1675C100.951 59.6302 101.756 59.4114 101.823 58.5848C102.53 57.7571 103.324 56.9837 103.934 56.0841C104.905 54.6405 106.379 53.6493 107.364 52.2319C108.616 50.4492 110.304 49.0413 111.871 47.5985C113.927 45.7 116.021 43.8267 118.072 41.9195C119.362 41.111 120.272 39.9073 121.229 38.7686C121.929 37.4757 121.812 37.2436 120.341 37.0886C119.507 37.152 118.778 37.5912 118.171 38.043C116.84 39.0235 115.025 39.2775 114.085 40.8183C113.794 41.0146 113.513 41.2507 113.202 41.412C112.428 41.8308 112.242 42.7925 111.563 43.2385C109.771 44.4182 108.582 46.2115 107.034 47.6446C105.296 49.2517 103.971 51.3151 102.441 53.1726C102.067 53.6322 101.451 53.9636 101.245 54.4784C100.592 56.123 98.9942 57.0569 98.3167 58.6578C97.7247 60.0624 96.2787 60.9807 96.0908 62.6184C96.0296 62.6524 95.9733 62.6951 95.9131 62.7515C95.1002 63.1004 94.4875 63.7271 93.9525 64.3906C93.4525 65.0348 93.3449 65.7467 94.4542 66.0339ZM96.6914 63.8634C96.7186 63.8711 96.7458 63.8789 96.7817 63.8818L96.6943 63.9304C96.6934 63.9081 96.6924 63.8857 96.6914 63.8634Z" fill="#F6A300"/>
<path d="M136.046 130.486C137.695 130.967 139.121 130.152 140.614 129.756C140.774 129.763 140.935 129.771 141.072 129.648C141.979 128.892 143.156 128.692 144.177 128.174C144.792 127.893 145.606 128.079 146.054 127.381C147.067 126.983 148.132 126.675 149.093 126.168C150.629 125.351 152.396 125.17 153.933 124.383C155.876 123.399 158.028 122.951 160.089 122.415C162.797 121.708 165.526 121.04 168.234 120.323C169.752 120.216 171.121 119.583 172.502 119.028C173.728 118.217 173.733 117.957 172.509 117.128C171.743 116.791 170.894 116.836 170.145 116.949C168.509 117.188 166.788 116.558 165.234 117.475C164.884 117.511 164.526 117.587 164.176 117.583C163.295 117.589 162.679 118.35 161.87 118.424C159.733 118.621 157.841 119.644 155.8 120.18C153.51 120.78 151.37 121.977 149.146 122.896C148.6 123.126 147.9 123.128 147.476 123.486C146.126 124.629 144.277 124.702 142.926 125.795C141.742 126.756 140.034 126.886 139.098 128.242C139.028 128.244 138.958 128.255 138.878 128.276C137.997 128.202 137.161 128.466 136.377 128.8C135.633 129.133 135.203 129.711 136.046 130.486ZM139.042 129.624C139.062 129.643 139.082 129.663 139.113 129.682L139.013 129.684C139.022 129.664 139.032 129.644 139.042 129.624Z" fill="#F6A300"/>
</svg>
