<svg width="48" height="163" viewBox="0 0 48 163" fill="none" xmlns="http://www.w3.org/2000/svg">
<path d="M39.9054 150.817C38.7708 150.606 37.8725 151.247 36.9009 151.613C36.7934 151.619 36.6858 151.625 36.6019 151.716C36.0467 152.283 35.2736 152.496 34.6259 152.912C34.2336 153.141 33.6773 153.072 33.4251 153.568C32.7746 153.903 32.0836 154.181 31.4752 154.585C30.5035 155.235 29.3344 155.475 28.3604 156.105C27.1278 156.894 25.7191 157.338 24.3775 157.836C22.6149 158.492 20.8357 159.122 19.0739 159.785C18.0661 159.958 17.1936 160.475 16.3081 160.938C15.5433 161.564 15.5572 161.738 16.4319 162.209C16.9667 162.383 17.5315 162.295 18.024 162.169C19.1016 161.899 20.2948 162.204 21.2719 161.486C21.5031 161.438 21.7377 161.363 21.9721 161.342C22.56 161.279 22.921 160.729 23.4567 160.625C24.8719 160.348 26.0679 159.537 27.3962 159.041C28.8864 158.485 30.2358 157.54 31.6607 156.775C32.0103 156.585 32.4781 156.536 32.7373 156.269C33.5628 155.413 34.794 155.24 35.6233 154.417C36.3496 153.695 37.4826 153.493 38.0171 152.523C38.0638 152.517 38.1097 152.505 38.1615 152.485C38.7558 152.476 39.2965 152.242 39.7982 151.966C40.2733 151.693 40.5218 151.278 39.9054 150.817ZM37.9612 151.596C37.9462 151.584 37.9313 151.572 37.9097 151.561L37.9764 151.553C37.9713 151.567 37.9663 151.581 37.9612 151.596Z" fill="#F6A300"/>
<path d="M26.6949 86.6053C25.7996 85.8772 24.704 86.0099 23.676 85.8656C23.5787 85.8193 23.4814 85.7731 23.3641 85.8129C22.6053 86.0444 21.8244 85.8617 21.057 85.916C20.6028 85.9293 20.1477 85.6021 19.6882 85.9174C18.9571 85.8993 18.2173 85.8127 17.4898 85.8757C16.3256 85.9809 15.1842 85.6319 14.0275 85.7183C12.5676 85.8207 11.118 85.5364 9.70196 85.3307C7.84057 85.0622 5.97671 84.7638 4.11282 84.5016C3.14485 84.1714 2.13168 84.2068 1.13227 84.1898C0.161397 84.3725 0.090153 84.5321 0.632262 85.3648C1.01874 85.7731 1.55635 85.9669 2.0491 86.092C3.12442 86.3711 4.02587 87.2103 5.22755 87.0478C5.45333 87.1166 5.69535 87.1629 5.91114 87.2567C6.45746 87.4829 7.03789 87.1727 7.55806 87.3378C8.93271 87.7731 10.3714 87.6332 11.775 87.8339C13.3494 88.0598 14.9866 87.8764 16.6036 87.8876C17.0016 87.8879 17.4357 88.0692 17.7914 87.9584C18.9258 87.6025 20.0896 88.0401 21.2116 87.7153C22.195 87.4291 23.2865 87.7943 24.2202 87.1986C24.2639 87.2161 24.31 87.2273 24.3649 87.2349C24.8912 87.511 25.4776 87.5651 26.0503 87.5631C26.5981 87.551 27.015 87.3056 26.6949 86.6053ZM24.6151 86.3579C24.6077 86.3404 24.6002 86.323 24.5865 86.303L24.6489 86.328C24.6376 86.338 24.6264 86.3479 24.6151 86.3579Z" fill="#F6A300"/>
<path d="M47.2445 19.3966C46.7972 18.3328 45.768 17.9343 44.9289 17.3232C44.8648 17.2366 44.8007 17.1501 44.6785 17.13C43.9 16.9772 43.297 16.4484 42.5943 16.1352C42.1873 15.9333 41.9396 15.4303 41.3859 15.4923C40.7493 15.1324 40.1373 14.7077 39.4657 14.421C38.389 13.966 37.5461 13.1209 36.4848 12.6528C35.1484 12.0562 34.0032 11.1231 32.8506 10.2752C31.3345 9.16239 29.8304 8.02198 28.3091 6.91348C27.6104 6.16665 26.6998 5.72109 25.826 5.23578C24.8833 4.94007 24.7454 5.04741 24.8318 6.03722C24.9807 6.57936 25.3639 7.00337 25.7398 7.34568C26.5572 8.09796 26.9577 9.26261 28.0945 9.68471C28.2614 9.85167 28.4531 10.0065 28.5994 10.1907C28.9749 10.6475 29.6331 10.6469 30.0144 11.0373C31.0224 12.0683 32.3577 12.6219 33.5017 13.4595C34.7846 14.3997 36.3155 15.0083 37.737 15.7792C38.088 15.9668 38.3857 16.331 38.7517 16.4006C39.9202 16.6204 40.7411 17.5542 41.8839 17.7956C42.8863 18.0058 43.6776 18.8417 44.7818 18.7555C44.8121 18.7915 44.8475 18.8231 44.8924 18.8556C45.2268 19.347 45.7188 19.6707 46.2251 19.9384C46.714 20.1855 47.1974 20.1651 47.2445 19.3966ZM45.5259 18.1996C45.5275 18.1807 45.5291 18.1617 45.5264 18.1376L45.5697 18.1891C45.5551 18.1926 45.5405 18.1961 45.5259 18.1996Z" fill="#F6A300"/>
</svg>
