<svg width="68" height="62" viewBox="0 0 68 62" fill="none" xmlns="http://www.w3.org/2000/svg">
<g clip-path="url(#clip0)">
<path d="M17.7102 26.5397C19.2306 23.4603 20.6979 20.368 22.1651 17.2757C23.2725 14.9947 24.7964 12.909 25.7975 10.6022C26.7655 8.39188 25.3261 6.48483 22.7893 6.49536C21.4963 6.5051 20.4504 7.03476 20.0315 8.21846C17.9371 14.1369 14.0335 19.3231 10.9183 24.7949C10.6939 25.5138 10.4656 26.2108 10.2126 26.9123C8.01333 28.2172 8.07336 30.2175 8.05171 32.1875C8.00591 32.3541 7.98468 32.5161 7.93888 32.6827C6.54771 33.5464 7.25779 34.7955 7.07664 35.8907L7.09722 35.8643C5.8523 37.8088 5.46208 39.846 6.1311 41.9839C6.62274 43.5665 5.95955 45.3597 7.04089 46.8349L7.0369 46.813C6.70961 47.6636 6.59549 48.4302 7.68998 48.8634C7.89722 49.1646 8.08387 49.4921 8.29111 49.7933C8.3797 51.811 11.8333 54.3226 14.1045 54.2475C14.2148 54.2952 14.3005 54.3474 14.4107 54.3951C16.7066 55.1516 19.1145 54.7126 21.2223 53.7408C23.5431 52.6849 25.9218 51.5281 26.7768 48.9768C27.6736 46.2371 28.2351 43.4681 27.1104 40.7805C26.6613 39.7098 25.6007 39.0445 23.6828 38.8292C22.6234 37.8924 20.503 38.0982 18.747 37.3788C17.4035 36.8328 16.0208 36.7685 14.7551 37.067C15.6194 34.288 15.2325 31.3303 16.6161 28.6149C16.9673 27.8955 17.0774 27.107 17.7102 26.5397Z" fill="#F6A300"/>
</g>
<g clip-path="url(#clip1)">
<path d="M51.1399 25.913C52.6603 22.8336 54.1276 19.7413 55.5948 16.649C56.7022 14.368 58.226 12.2823 59.2272 9.97551C60.1952 7.76517 58.7558 5.85812 56.219 5.86865C54.926 5.8784 53.8801 6.40805 53.4612 7.59175C51.3668 13.5102 47.4632 18.6964 44.348 24.1682C44.1236 24.8871 43.8953 25.5841 43.6423 26.2856C41.443 27.5905 41.5031 29.5908 41.4814 31.5608C41.4356 31.7273 41.4144 31.8894 41.3686 32.0559C39.9774 32.9197 40.6875 34.1688 40.5063 35.2639L40.5269 35.2376C39.282 37.182 38.8918 39.2193 39.5608 41.3571C40.0524 42.9398 39.3892 44.733 40.4706 46.2082L40.4666 46.1863C40.1393 47.0369 40.0252 47.8035 41.1197 48.2367C41.3269 48.5379 41.5136 48.8654 41.7208 49.1666C41.8094 51.1843 45.263 53.6959 47.5342 53.6208C47.6445 53.6685 47.7301 53.7207 47.8404 53.7684C50.1363 54.5249 52.5442 54.0859 54.6519 53.1141C56.9728 52.0582 59.3515 50.9014 60.2065 48.3501C61.1033 45.6103 61.6648 42.8414 60.5401 40.1538C60.091 39.0831 59.0304 38.4178 57.1124 38.2025C56.0531 37.2657 53.9327 37.4715 52.1767 36.7521C50.8331 36.2061 49.4505 36.1418 48.1848 36.4403C49.0491 33.6613 48.6622 30.7036 50.0458 27.9881C50.397 27.2688 50.5071 26.4803 51.1399 25.913Z" fill="#F6A300"/>
</g>
<defs>
<clipPath id="clip0">
<rect width="26" height="46.6207" fill="white" transform="translate(0 10.582) rotate(-10.3323)"/>
</clipPath>
<clipPath id="clip1">
<rect width="26" height="46.6207" fill="white" transform="translate(33.4297 9.95532) rotate(-10.3323)"/>
</clipPath>
</defs>
</svg>
